<svg width="140" height="19" viewBox="0 0 140 19" fill="none" xmlns="http://www.w3.org/2000/svg">
<path d="M1.10832 2.74807L6.78138 16.8143C7.08649 17.5708 7.82048 18.0662 8.63621 18.0662H13.4331C14.2555 18.0662 14.9942 17.5627 15.2947 16.7971L20.8167 2.73083C21.3317 1.41886 20.3644 0 18.955 0H2.96315C1.54579 0 0.578179 1.43358 1.10832 2.74807Z" fill="white"/>
<path d="M22.5135 13H20.3813C18.9862 13 18.0197 11.6076 18.5076 10.3006L21.3449 2.69941C21.8328 1.39237 20.8663 0 19.4712 0H10.9193C10.0659 0 9.30648 0.541534 9.02843 1.34839L8.91376 1.68114C8.46623 2.97982 9.431 4.33275 10.8046 4.33275H11.4077C12.8183 4.33275 13.7856 5.75372 13.2684 7.06607L10.0104 15.3329C9.4932 16.6453 10.4605 18.0662 11.8711 18.0662H22.8345C24.1751 18.0662 25.1361 16.7733 24.7496 15.4896L24.4286 14.4234C24.1741 13.5784 23.396 13 22.5135 13Z" fill="#2E89C5"/>
<path d="M25.7425 4.97015C25.1114 2.44556 27.0208 0 29.6231 0H132.377C134.212 0 135.812 1.24919 136.257 3.02986L138.757 13.0299C139.389 15.5544 137.479 18 134.877 18H32.1231C30.2876 18 28.6877 16.7508 28.2425 14.9701L25.7425 4.97015Z" fill="white"/>
<path d="M41.3576 13.9507C40.3152 13.9507 39.4181 13.2141 39.2153 12.1917L38.2693 7.42458C38.266 7.40792 38.2513 7.39591 38.2344 7.39591C38.2174 7.39591 38.2027 7.40792 38.1994 7.42458L37.2534 12.1917C37.0506 13.2141 36.1535 13.9507 35.1112 13.9507C34.0847 13.9507 33.1967 13.2359 32.9775 12.2331L31.4307 5.15771C31.2094 4.14541 31.9803 3.18773 33.0165 3.18773C33.7966 3.18773 34.4664 3.74266 34.6115 4.50918L35.5106 9.26012C35.5137 9.27676 35.5283 9.28881 35.5452 9.28881C35.5622 9.28881 35.5767 9.27672 35.5798 9.26004L36.4201 4.76286C36.5907 3.84969 37.3878 3.18773 38.3168 3.18773C39.2374 3.18773 40.0298 3.83806 40.2093 4.74098L41.1078 9.26044C41.1111 9.27693 41.1256 9.28881 41.1424 9.28881C41.1595 9.28881 41.1741 9.27655 41.1771 9.25972L42.0273 4.46337C42.1581 3.72544 42.7995 3.18773 43.549 3.18773C44.5355 3.18773 45.2694 4.09945 45.0587 5.06317L43.4912 12.2331C43.272 13.2359 42.384 13.9507 41.3576 13.9507Z" fill="black"/>
<path d="M51.452 3C53.1863 3 54.526 3.47453 55.4711 4.42359C56.4162 5.37264 56.8887 6.75451 56.8887 8.56919C56.8887 10.3839 56.4162 11.7657 55.4711 12.7148C54.526 13.6639 53.1863 14.1384 51.452 14.1384C49.7177 14.1384 48.378 13.6691 47.4329 12.7304C46.4976 11.7814 46.0299 10.3943 46.0299 8.56919C46.0299 6.74408 46.4976 5.36221 47.4329 4.42359C48.378 3.47453 49.7177 3 51.452 3ZM51.452 5.58123C50.7602 5.58123 50.2341 5.80546 49.8736 6.25391C49.5131 6.70237 49.3329 7.30726 49.3329 8.06859V9.0698C49.3329 9.83113 49.5131 10.436 49.8736 10.8845C50.2341 11.3329 50.7602 11.5572 51.452 11.5572C52.1438 11.5572 52.6699 11.3329 53.0304 10.8845C53.4007 10.436 53.5858 9.83113 53.5858 9.0698V8.06859C53.5858 7.30726 53.4007 6.70237 53.0304 6.25391C52.6699 5.80546 52.1438 5.58123 51.452 5.58123Z" fill="black"/>
<path d="M58.2773 8.56919C58.2773 6.74408 58.7449 5.36221 59.6803 4.42359C60.6254 3.47453 61.9651 3 63.6994 3C65.4337 3 66.7734 3.47453 67.7185 4.42359C68.6636 5.37264 69.1361 6.75451 69.1361 8.56919C69.1361 9.77898 68.9218 10.801 68.4931 11.6354C68.2668 12.0804 67.9836 12.4676 67.6436 12.797C67.1983 13.2284 67.0633 13.959 67.4837 14.4147C68.042 15.0199 67.6127 16 66.7893 16H65.7572C65.3423 16 64.9489 15.8156 64.6835 15.4967L64.3184 15.0579C63.8325 14.474 63.1116 14.1591 62.3628 14.0312C61.2338 13.8384 60.325 13.3892 59.6364 12.6835C58.7303 11.7345 58.2773 10.363 58.2773 8.56919ZM65.8331 8.06859C65.8331 7.30726 65.648 6.70237 65.2778 6.25391C64.9173 5.80546 64.3911 5.58123 63.6994 5.58123C63.0076 5.58123 62.4815 5.80546 62.121 6.25391C61.7605 6.70237 61.5802 7.30726 61.5802 8.06859V9.0698C61.5802 9.83113 61.7605 10.436 62.121 10.8845C62.4815 11.3329 63.0076 11.5572 63.6994 11.5572C64.3911 11.5572 64.9173 11.3329 65.2778 10.8845C65.648 10.436 65.8331 9.83113 65.8331 9.0698V8.06859Z" fill="black"/>
<path d="M75.9467 3C77.681 3 79.0207 3.47453 79.9658 4.42359C80.9109 5.37264 81.3835 6.75451 81.3835 8.56919C81.3835 10.3839 80.9109 11.7657 79.9658 12.7148C79.0207 13.6639 77.681 14.1384 75.9467 14.1384C74.2124 14.1384 72.8728 13.6691 71.9277 12.7304C70.9923 11.7814 70.5246 10.3943 70.5246 8.56919C70.5246 6.74408 70.9923 5.36221 71.9277 4.42359C72.8728 3.47453 74.2124 3 75.9467 3ZM75.9467 5.58123C75.255 5.58123 74.7288 5.80546 74.3683 6.25391C74.0078 6.70237 73.8276 7.30726 73.8276 8.06859V9.0698C73.8276 9.83113 74.0078 10.436 74.3683 10.8845C74.7288 11.3329 75.255 11.5572 75.9467 11.5572C76.6385 11.5572 77.1647 11.3329 77.5252 10.8845C77.8954 10.436 78.0805 9.83113 78.0805 9.0698V8.06859C78.0805 7.30726 77.8954 6.70237 77.5252 6.25391C77.1647 5.80546 76.6385 5.58123 75.9467 5.58123Z" fill="black"/>
<path d="M93.4335 13.9507C92.5497 13.9507 91.8332 13.2342 91.8332 12.3503V10.071C91.8332 9.59126 91.8478 9.10108 91.8771 8.60048C91.916 8.08945 91.955 7.66185 91.994 7.31769C92.0288 7.01003 92.052 6.80239 92.0635 6.69474C92.0654 6.67647 92.0511 6.66065 92.0327 6.66065C92.0185 6.66065 92.0061 6.67026 92.0027 6.68399L90.4648 12.724C90.2811 13.4456 89.6313 13.9507 88.8868 13.9507C88.1436 13.9507 87.4948 13.4476 87.3097 12.7278L85.7594 6.69959C85.7559 6.68588 85.7435 6.67629 85.7294 6.67629C85.711 6.67629 85.6966 6.69213 85.6986 6.71043C85.71 6.81808 85.7332 7.02571 85.768 7.33333C85.8168 7.66707 85.8606 8.08945 85.8996 8.60048C85.9386 9.10108 85.958 9.59126 85.958 10.071V12.4673C85.958 13.2865 85.2939 13.9507 84.4746 13.9507C83.6554 13.9507 82.9912 13.2865 82.9912 12.4673V5.74258C82.9912 4.33157 84.1351 3.18773 85.5461 3.18773C86.7231 3.18773 87.7479 3.99192 88.0277 5.13524L89.0641 9.36996C89.0681 9.38661 89.0831 9.39832 89.1002 9.39832C89.1174 9.39832 89.1323 9.38656 89.1364 9.36988L90.1786 5.07C90.4463 3.96552 91.4351 3.18773 92.5716 3.18773C93.9315 3.18773 95.0339 4.29013 95.0339 5.65002V12.3503C95.0339 13.2342 94.3174 13.9507 93.4335 13.9507Z" fill="black"/>
<path d="M102.069 3C103.803 3 105.143 3.47453 106.088 4.42359C107.033 5.37264 107.505 6.75451 107.505 8.56919C107.505 10.3839 107.033 11.7657 106.088 12.7148C105.143 13.6639 103.803 14.1384 102.069 14.1384C100.334 14.1384 98.9945 13.6691 98.0494 12.7304C97.1141 11.7814 96.6464 10.3943 96.6464 8.56919C96.6464 6.74408 97.1141 5.36221 98.0494 4.42359C98.9945 3.47453 100.334 3 102.069 3ZM102.069 5.58123C101.377 5.58123 100.851 5.80546 100.49 6.25391C100.13 6.70237 99.9494 7.30726 99.9494 8.06859V9.0698C99.9494 9.83113 100.13 10.436 100.49 10.8845C100.851 11.3329 101.377 11.5572 102.069 11.5572C102.76 11.5572 103.286 11.3329 103.647 10.8845C104.017 10.436 104.202 9.83113 104.202 9.0698V8.06859C104.202 7.30726 104.017 6.70237 103.647 6.25391C103.286 5.80546 102.76 5.58123 102.069 5.58123Z" fill="black"/>
<path d="M108.894 8.56919C108.894 6.74408 109.361 5.36221 110.297 4.42359C111.242 3.47453 112.582 3 114.316 3C116.05 3 117.39 3.47453 118.335 4.42359C119.28 5.37264 119.753 6.75451 119.753 8.56919C119.753 9.77898 119.538 10.801 119.11 11.6354C118.883 12.0804 118.6 12.4676 118.26 12.797C117.815 13.2284 117.68 13.959 118.1 14.4147C118.659 15.0199 118.229 16 117.406 16H116.374C115.959 16 115.565 15.8156 115.3 15.4967L114.935 15.0579C114.449 14.474 113.728 14.1591 112.979 14.0312C111.85 13.8384 110.941 13.3892 110.253 12.6835C109.347 11.7345 108.894 10.363 108.894 8.56919ZM116.45 8.06859C116.45 7.30726 116.265 6.70237 115.894 6.25391C115.534 5.80546 115.008 5.58123 114.316 5.58123C113.624 5.58123 113.098 5.80546 112.737 6.25391C112.377 6.70237 112.197 7.30726 112.197 8.06859V9.0698C112.197 9.83113 112.377 10.436 112.737 10.8845C113.098 11.3329 113.624 11.5572 114.316 11.5572C115.008 11.5572 115.534 11.3329 115.894 10.8845C116.265 10.436 116.45 9.83113 116.45 9.0698V8.06859Z" fill="black"/>
<path d="M126.563 3C128.298 3 129.637 3.47453 130.582 4.42359C131.527 5.37264 132 6.75451 132 8.56919C132 10.3839 131.527 11.7657 130.582 12.7148C129.637 13.6639 128.298 14.1384 126.563 14.1384C124.829 14.1384 123.489 13.6691 122.544 12.7304C121.609 11.7814 121.141 10.3943 121.141 8.56919C121.141 6.74408 121.609 5.36221 122.544 4.42359C123.489 3.47453 124.829 3 126.563 3ZM126.563 5.58123C125.871 5.58123 125.345 5.80546 124.985 6.25391C124.624 6.70237 124.444 7.30726 124.444 8.06859V9.0698C124.444 9.83113 124.624 10.436 124.985 10.8845C125.345 11.3329 125.871 11.5572 126.563 11.5572C127.255 11.5572 127.781 11.3329 128.142 10.8845C128.512 10.436 128.697 9.83113 128.697 9.0698V8.06859C128.697 7.30726 128.512 6.70237 128.142 6.25391C127.781 5.80546 127.255 5.58123 126.563 5.58123Z" fill="black"/>
</svg>
